<svg xmlns="http://www.w3.org/2000/svg" xmlns:xlink="http://www.w3.org/1999/xlink" width="5000" zoomAndPan="magnify" viewBox="0 0 375 374.999991" height="5000" preserveAspectRatio="xMidYMid meet" version="1.2"><defs><clipPath id="cb9b7bef19"><path d="M 169.378906 141.84375 L 176.917969 141.84375 L 176.917969 149.386719 L 169.378906 149.386719 Z M 169.378906 141.84375 "/></clipPath><clipPath id="8de77d00ec"><path d="M 173.148438 141.84375 C 171.066406 141.84375 169.378906 143.535156 169.378906 145.617188 C 169.378906 147.699219 171.066406 149.386719 173.148438 149.386719 C 175.230469 149.386719 176.917969 147.699219 176.917969 145.617188 C 176.917969 143.535156 175.230469 141.84375 173.148438 141.84375 Z M 173.148438 141.84375 "/></clipPath><clipPath id="adce69af72"><path d="M 193.414062 199.683594 L 197.695312 199.683594 L 197.695312 203.964844 L 193.414062 203.964844 Z M 193.414062 199.683594 "/></clipPath><clipPath id="366c359f4f"><path d="M 195.554688 199.683594 C 194.371094 199.683594 193.414062 200.640625 193.414062 201.824219 C 193.414062 203.007812 194.371094 203.964844 195.554688 203.964844 C 196.738281 203.964844 197.695312 203.007812 197.695312 201.824219 C 197.695312 200.640625 196.738281 199.683594 195.554688 199.683594 Z M 195.554688 199.683594 "/></clipPath><clipPath id="1328731030"><path d="M 176.027344 199.683594 L 180.3125 199.683594 L 180.3125 203.964844 L 176.027344 203.964844 Z M 176.027344 199.683594 "/></clipPath><clipPath id="62189d8dfa"><path d="M 178.171875 199.683594 C 176.988281 199.683594 176.027344 200.640625 176.027344 201.824219 C 176.027344 203.007812 176.988281 203.964844 178.171875 203.964844 C 179.355469 203.964844 180.3125 203.007812 180.3125 201.824219 C 180.3125 200.640625 179.355469 199.683594 178.171875 199.683594 Z M 178.171875 199.683594 "/></clipPath><clipPath id="6e7784995c"><path d="M 197.441406 141.84375 L 204.980469 141.84375 L 204.980469 149.386719 L 197.441406 149.386719 Z M 197.441406 141.84375 "/></clipPath><clipPath id="f43d7722ad"><path d="M 201.210938 141.84375 C 199.128906 141.84375 197.441406 143.535156 197.441406 145.617188 C 197.441406 147.699219 199.128906 149.386719 201.210938 149.386719 C 203.292969 149.386719 204.980469 147.699219 204.980469 145.617188 C 204.980469 143.535156 203.292969 141.84375 201.210938 141.84375 Z M 201.210938 141.84375 "/></clipPath><clipPath id="aa7fdf61be"><path d="M 179.515625 124.292969 L 195.484375 124.292969 L 195.484375 140.261719 L 179.515625 140.261719 Z M 179.515625 124.292969 "/></clipPath><clipPath id="1a4af4398f"><path d="M 187.5 124.292969 C 183.089844 124.292969 179.515625 127.867188 179.515625 132.277344 C 179.515625 136.6875 183.089844 140.261719 187.5 140.261719 C 191.910156 140.261719 195.484375 136.6875 195.484375 132.277344 C 195.484375 127.867188 191.910156 124.292969 187.5 124.292969 Z M 187.5 124.292969 "/></clipPath><clipPath id="c0ede245e5"><path d="M 178.667969 166.101562 L 196.347656 166.101562 L 196.347656 171.933594 L 178.667969 171.933594 Z M 178.667969 166.101562 "/></clipPath><clipPath id="fe354c2836"><path d="M 181.582031 166.101562 L 193.417969 166.101562 C 195.027344 166.101562 196.332031 167.40625 196.332031 169.015625 C 196.332031 170.628906 195.027344 171.933594 193.417969 171.933594 L 181.582031 171.933594 C 179.972656 171.933594 178.667969 170.628906 178.667969 169.015625 C 178.667969 167.40625 179.972656 166.101562 181.582031 166.101562 Z M 181.582031 166.101562 "/></clipPath><clipPath id="dd89a3bede"><path d="M 178.675781 166.101562 L 196.667969 166.101562 L 196.667969 172 L 178.675781 172 Z M 178.675781 166.101562 "/></clipPath><clipPath id="903ebd5c24"><path d="M 181.589844 166.101562 L 193.40625 166.101562 C 195.015625 166.101562 196.316406 167.402344 196.316406 169.011719 C 196.316406 170.621094 195.015625 171.925781 193.40625 171.925781 L 181.589844 171.925781 C 179.980469 171.925781 178.675781 170.621094 178.675781 169.011719 C 178.675781 167.402344 179.980469 166.101562 181.589844 166.101562 Z M 181.589844 166.101562 "/></clipPath></defs><g id="1e4cce119d"><g style="fill:#000000;fill-opacity:1;"><g transform="translate(11.538036, 300.241294)"><path style="stroke:none" d="M 13.21875 -27.859375 C 16.039062 -27.859375 18.460938 -27.351562 20.484375 -26.34375 C 22.515625 -25.332031 24.078125 -23.789062 25.171875 -21.71875 C 26.273438 -19.644531 26.828125 -17.046875 26.828125 -13.921875 C 26.828125 -10.796875 26.273438 -8.195312 25.171875 -6.125 C 24.078125 -4.0625 22.515625 -2.523438 20.484375 -1.515625 C 18.460938 -0.503906 16.039062 0 13.21875 0 L 4.203125 0 L 4.203125 -27.859375 Z M 12.890625 -2.78125 C 15.222656 -2.78125 17.148438 -3.140625 18.671875 -3.859375 C 20.191406 -4.585938 21.34375 -5.769531 22.125 -7.40625 C 22.914062 -9.050781 23.3125 -11.222656 23.3125 -13.921875 C 23.3125 -16.640625 22.914062 -18.816406 22.125 -20.453125 C 21.34375 -22.085938 20.191406 -23.265625 18.671875 -23.984375 C 17.148438 -24.710938 15.222656 -25.078125 12.890625 -25.078125 L 7.484375 -25.078125 L 7.484375 -2.78125 Z M 12.890625 -2.78125 "/></g></g><g style="fill:#000000;fill-opacity:1;"><g transform="translate(41.142953, 300.241294)"><path style="stroke:none" d="M 7.484375 0 L 4.203125 0 L 4.203125 -27.859375 L 7.484375 -27.859375 Z M 7.484375 0 "/></g></g><g style="fill:#000000;fill-opacity:1;"><g transform="translate(52.859198, 300.241294)"><path style="stroke:none" d="M 12.171875 0.40625 C 10.421875 0.40625 8.847656 0.164062 7.453125 -0.3125 C 6.066406 -0.789062 4.910156 -1.414062 3.984375 -2.1875 C 3.054688 -2.96875 2.363281 -3.820312 1.90625 -4.75 L 3.703125 -6.921875 L 4.171875 -6.921875 C 5.898438 -4.003906 8.566406 -2.546875 12.171875 -2.546875 C 14.265625 -2.546875 15.820312 -2.984375 16.84375 -3.859375 C 17.875 -4.742188 18.390625 -5.96875 18.390625 -7.53125 C 18.390625 -8.4375 18.21875 -9.207031 17.875 -9.84375 C 17.539062 -10.476562 16.984375 -11.019531 16.203125 -11.46875 C 15.429688 -11.925781 14.378906 -12.320312 13.046875 -12.65625 L 9.796875 -13.453125 C 7.367188 -14.035156 5.578125 -14.960938 4.421875 -16.234375 C 3.273438 -17.515625 2.703125 -19.132812 2.703125 -21.09375 C 2.703125 -22.476562 3.054688 -23.710938 3.765625 -24.796875 C 4.484375 -25.878906 5.523438 -26.722656 6.890625 -27.328125 C 8.265625 -27.941406 9.90625 -28.25 11.8125 -28.25 C 13.90625 -28.25 15.671875 -27.953125 17.109375 -27.359375 C 18.554688 -26.773438 19.710938 -25.890625 20.578125 -24.703125 L 18.96875 -22.5625 L 18.5 -22.5625 C 17.695312 -23.53125 16.75 -24.242188 15.65625 -24.703125 C 14.5625 -25.160156 13.28125 -25.390625 11.8125 -25.390625 C 9.882812 -25.390625 8.425781 -25.015625 7.4375 -24.265625 C 6.457031 -23.515625 5.96875 -22.484375 5.96875 -21.171875 C 5.96875 -19.910156 6.328125 -18.90625 7.046875 -18.15625 C 7.773438 -17.414062 8.992188 -16.84375 10.703125 -16.4375 L 14.046875 -15.640625 C 16.742188 -15.003906 18.695312 -14.03125 19.90625 -12.71875 C 21.125 -11.40625 21.734375 -9.722656 21.734375 -7.671875 C 21.734375 -6.097656 21.378906 -4.703125 20.671875 -3.484375 C 19.972656 -2.273438 18.90625 -1.320312 17.46875 -0.625 C 16.03125 0.0625 14.265625 0.40625 12.171875 0.40625 Z M 12.171875 0.40625 "/></g></g><g style="fill:#000000;fill-opacity:1;"><g transform="translate(76.729844, 300.241294)"><path style="stroke:none" d="M 14.171875 -27.859375 C 16.085938 -27.859375 17.734375 -27.515625 19.109375 -26.828125 C 20.484375 -26.140625 21.523438 -25.15625 22.234375 -23.875 C 22.953125 -22.601562 23.3125 -21.101562 23.3125 -19.375 C 23.3125 -17.644531 22.953125 -16.144531 22.234375 -14.875 C 21.523438 -13.601562 20.484375 -12.617188 19.109375 -11.921875 C 17.734375 -11.234375 16.085938 -10.890625 14.171875 -10.890625 L 7.484375 -10.890625 L 7.484375 0 L 4.203125 0 L 4.203125 -27.859375 Z M 14.078125 -13.703125 C 17.953125 -13.703125 19.890625 -15.59375 19.890625 -19.375 C 19.890625 -23.175781 17.953125 -25.078125 14.078125 -25.078125 L 7.484375 -25.078125 L 7.484375 -13.703125 Z M 14.078125 -13.703125 "/></g></g><g style="fill:#000000;fill-opacity:1;"><g transform="translate(102.124552, 300.241294)"><path style="stroke:none" d="M 7.484375 -27.859375 L 7.484375 -2.703125 L 20.90625 -2.703125 L 20.90625 0 L 4.203125 0 L 4.203125 -27.859375 Z M 7.484375 -27.859375 "/></g></g><g style="fill:#000000;fill-opacity:1;"><g transform="translate(124.204424, 300.241294)"><path style="stroke:none" d="M 25.078125 0 L 21.5625 0 L 19 -7.640625 L 7.125 -7.640625 L 4.53125 0 L 1.109375 0 L 10.828125 -27.859375 L 15.359375 -27.859375 Z M 12.828125 -24.484375 L 8.046875 -10.375 L 18.0625 -10.375 L 13.296875 -24.484375 Z M 12.828125 -24.484375 "/></g></g><g style="fill:#000000;fill-opacity:1;"><g transform="translate(148.22728, 300.241294)"><path style="stroke:none" d="M 13.609375 0 L 10.34375 0 L 10.34375 -10.9375 L 0.71875 -27.859375 L 4.3125 -27.859375 L 11.8125 -14.796875 L 12.28125 -14.796875 L 19.734375 -27.859375 L 23.234375 -27.859375 L 13.609375 -10.9375 Z M 13.609375 0 "/></g></g><g style="fill:#000000;fill-opacity:1;"><g transform="translate(172.174129, 300.241294)"><path style="stroke:none" d=""/></g></g><g style="fill:#000000;fill-opacity:1;"><g transform="translate(181.737622, 300.241294)"><path style="stroke:none" d="M 4.6875 0 L 1.109375 0 L 9.796875 -14.328125 L 1.5 -27.859375 L 5.1875 -27.859375 L 12.171875 -16.5625 L 12.65625 -16.5625 L 19.734375 -27.859375 L 23.234375 -27.859375 L 14.953125 -14.328125 L 23.640625 0 L 19.984375 0 L 12.578125 -12.0625 L 12.09375 -12.0625 Z M 4.6875 0 "/></g></g><g style="fill:#000000;fill-opacity:1;"><g transform="translate(206.465538, 300.241294)"><path style="stroke:none" d=""/></g></g><g style="fill:#000000;fill-opacity:1;"><g transform="translate(216.029032, 300.241294)"><path style="stroke:none" d="M 13.21875 -27.859375 C 16.039062 -27.859375 18.460938 -27.351562 20.484375 -26.34375 C 22.515625 -25.332031 24.078125 -23.789062 25.171875 -21.71875 C 26.273438 -19.644531 26.828125 -17.046875 26.828125 -13.921875 C 26.828125 -10.796875 26.273438 -8.195312 25.171875 -6.125 C 24.078125 -4.0625 22.515625 -2.523438 20.484375 -1.515625 C 18.460938 -0.503906 16.039062 0 13.21875 0 L 4.203125 0 L 4.203125 -27.859375 Z M 12.890625 -2.78125 C 15.222656 -2.78125 17.148438 -3.140625 18.671875 -3.859375 C 20.191406 -4.585938 21.34375 -5.769531 22.125 -7.40625 C 22.914062 -9.050781 23.3125 -11.222656 23.3125 -13.921875 C 23.3125 -16.640625 22.914062 -18.816406 22.125 -20.453125 C 21.34375 -22.085938 20.191406 -23.265625 18.671875 -23.984375 C 17.148438 -24.710938 15.222656 -25.078125 12.890625 -25.078125 L 7.484375 -25.078125 L 7.484375 -2.78125 Z M 12.890625 -2.78125 "/></g></g><g style="fill:#000000;fill-opacity:1;"><g transform="translate(245.633949, 300.241294)"><path style="stroke:none" d="M 7.484375 -13.125 L 7.484375 -2.703125 L 21.671875 -2.703125 L 21.671875 0 L 4.203125 0 L 4.203125 -27.859375 L 21.375 -27.859375 L 21.375 -25.140625 L 7.484375 -25.140625 L 7.484375 -15.828125 L 19.734375 -15.828125 L 19.734375 -13.125 Z M 7.484375 -13.125 "/></g></g><g style="fill:#000000;fill-opacity:1;"><g transform="translate(269.16168, 300.241294)"><path style="stroke:none" d="M 12.171875 0.40625 C 10.421875 0.40625 8.847656 0.164062 7.453125 -0.3125 C 6.066406 -0.789062 4.910156 -1.414062 3.984375 -2.1875 C 3.054688 -2.96875 2.363281 -3.820312 1.90625 -4.75 L 3.703125 -6.921875 L 4.171875 -6.921875 C 5.898438 -4.003906 8.566406 -2.546875 12.171875 -2.546875 C 14.265625 -2.546875 15.820312 -2.984375 16.84375 -3.859375 C 17.875 -4.742188 18.390625 -5.96875 18.390625 -7.53125 C 18.390625 -8.4375 18.21875 -9.207031 17.875 -9.84375 C 17.539062 -10.476562 16.984375 -11.019531 16.203125 -11.46875 C 15.429688 -11.925781 14.378906 -12.320312 13.046875 -12.65625 L 9.796875 -13.453125 C 7.367188 -14.035156 5.578125 -14.960938 4.421875 -16.234375 C 3.273438 -17.515625 2.703125 -19.132812 2.703125 -21.09375 C 2.703125 -22.476562 3.054688 -23.710938 3.765625 -24.796875 C 4.484375 -25.878906 5.523438 -26.722656 6.890625 -27.328125 C 8.265625 -27.941406 9.90625 -28.25 11.8125 -28.25 C 13.90625 -28.25 15.671875 -27.953125 17.109375 -27.359375 C 18.554688 -26.773438 19.710938 -25.890625 20.578125 -24.703125 L 18.96875 -22.5625 L 18.5 -22.5625 C 17.695312 -23.53125 16.75 -24.242188 15.65625 -24.703125 C 14.5625 -25.160156 13.28125 -25.390625 11.8125 -25.390625 C 9.882812 -25.390625 8.425781 -25.015625 7.4375 -24.265625 C 6.457031 -23.515625 5.96875 -22.484375 5.96875 -21.171875 C 5.96875 -19.910156 6.328125 -18.90625 7.046875 -18.15625 C 7.773438 -17.414062 8.992188 -16.84375 10.703125 -16.4375 L 14.046875 -15.640625 C 16.742188 -15.003906 18.695312 -14.03125 19.90625 -12.71875 C 21.125 -11.40625 21.734375 -9.722656 21.734375 -7.671875 C 21.734375 -6.097656 21.378906 -4.703125 20.671875 -3.484375 C 19.972656 -2.273438 18.90625 -1.320312 17.46875 -0.625 C 16.03125 0.0625 14.265625 0.40625 12.171875 0.40625 Z M 12.171875 0.40625 "/></g></g><g style="fill:#000000;fill-opacity:1;"><g transform="translate(293.032326, 300.241294)"><path style="stroke:none" d="M 7.484375 0 L 4.203125 0 L 4.203125 -27.859375 L 7.484375 -27.859375 Z M 7.484375 0 "/></g></g><g style="fill:#000000;fill-opacity:1;"><g transform="translate(304.748571, 300.241294)"><path style="stroke:none" d="M 14.65625 0.40625 C 12.3125 0.40625 10.25 -0.125 8.46875 -1.1875 C 6.6875 -2.257812 5.289062 -3.867188 4.28125 -6.015625 C 3.28125 -8.160156 2.78125 -10.796875 2.78125 -13.921875 C 2.78125 -17.046875 3.316406 -19.679688 4.390625 -21.828125 C 5.460938 -23.972656 6.953125 -25.578125 8.859375 -26.640625 C 10.765625 -27.710938 12.960938 -28.25 15.453125 -28.25 C 18.117188 -28.25 20.304688 -27.769531 22.015625 -26.8125 C 23.734375 -25.851562 24.945312 -24.421875 25.65625 -22.515625 L 23.53125 -21.265625 L 23.046875 -21.265625 C 22.328125 -22.710938 21.347656 -23.75 20.109375 -24.375 C 18.878906 -25 17.328125 -25.3125 15.453125 -25.3125 C 9.335938 -25.3125 6.28125 -21.515625 6.28125 -13.921875 C 6.28125 -9.972656 7.046875 -7.085938 8.578125 -5.265625 C 10.117188 -3.453125 12.273438 -2.546875 15.046875 -2.546875 C 17.585938 -2.546875 19.488281 -3.125 20.75 -4.28125 C 22.019531 -5.4375 22.65625 -7.257812 22.65625 -9.75 L 22.65625 -12.21875 L 14.71875 -12.21875 L 14.71875 -14.84375 L 25.828125 -14.84375 L 25.828125 0 L 22.796875 0 L 22.796875 -3.734375 L 22.40625 -3.828125 C 21.664062 -2.390625 20.640625 -1.320312 19.328125 -0.625 C 18.015625 0.0625 16.457031 0.40625 14.65625 0.40625 Z M 14.65625 0.40625 "/></g></g><g style="fill:#000000;fill-opacity:1;"><g transform="translate(333.705762, 300.241294)"><path style="stroke:none" d="M 7.40625 0 L 4.203125 0 L 4.203125 -27.859375 L 8.234375 -27.859375 L 21.8125 -6.578125 L 22.296875 -6.65625 L 22.296875 -27.859375 L 25.46875 -27.859375 L 25.46875 0 L 22.046875 0 L 7.890625 -22.765625 L 7.40625 -22.6875 Z M 7.40625 0 "/></g></g><path style="fill:none;stroke-width:5;stroke-linecap:round;stroke-linejoin:miter;stroke:#000000;stroke-opacity:1;stroke-miterlimit:4;" d="M 2.502192 2.497724 L 82.486573 2.497724 " transform="matrix(0,-0.75,0.75,0,169.501707,257.489925)"/><path style="fill:none;stroke-width:5;stroke-linecap:round;stroke-linejoin:miter;stroke:#000000;stroke-opacity:1;stroke-miterlimit:4;" d="M 2.502192 2.500324 L 82.486573 2.500324 " transform="matrix(0.000000001309,-0.75,0.75,0.000000001309,185.624757,257.489925)"/><path style="fill:none;stroke-width:5;stroke-linecap:round;stroke-linejoin:miter;stroke:#000000;stroke-opacity:1;stroke-miterlimit:4;" d="M 2.502192 2.499998 L 82.486573 2.499998 " transform="matrix(0,-0.75,0.75,0,201.734377,257.489925)"/><path style="fill:none;stroke-width:5;stroke-linecap:round;stroke-linejoin:miter;stroke:#000000;stroke-opacity:1;stroke-miterlimit:4;" d="M 2.497411 2.49877 L 40.47658 2.49877 " transform="matrix(0.75,0.000000000000001984,-0.000000000000001984,0.75,171.376942,211.207954)"/><path style="fill:none;stroke-width:5;stroke-linecap:round;stroke-linejoin:miter;stroke:#000000;stroke-opacity:1;stroke-miterlimit:4;" d="M 2.502575 2.498134 L 65.262995 2.498134 " transform="matrix(0.75,0,0,0.75,161.959007,191.876399)"/><g clip-rule="nonzero" clip-path="url(#cb9b7bef19)"><g clip-rule="nonzero" clip-path="url(#8de77d00ec)"><path style=" stroke:none;fill-rule:nonzero;fill:#000000;fill-opacity:1;" d="M 169.378906 141.84375 L 176.917969 141.84375 L 176.917969 149.386719 L 169.378906 149.386719 Z M 169.378906 141.84375 "/></g></g><g clip-rule="nonzero" clip-path="url(#adce69af72)"><g clip-rule="nonzero" clip-path="url(#366c359f4f)"><path style=" stroke:none;fill-rule:nonzero;fill:#000000;fill-opacity:1;" d="M 193.414062 199.683594 L 197.695312 199.683594 L 197.695312 203.964844 L 193.414062 203.964844 Z M 193.414062 199.683594 "/></g></g><g clip-rule="nonzero" clip-path="url(#1328731030)"><g clip-rule="nonzero" clip-path="url(#62189d8dfa)"><path style=" stroke:none;fill-rule:nonzero;fill:#000000;fill-opacity:1;" d="M 176.027344 199.683594 L 180.3125 199.683594 L 180.3125 203.964844 L 176.027344 203.964844 Z M 176.027344 199.683594 "/></g></g><path style="fill:none;stroke-width:3;stroke-linecap:round;stroke-linejoin:miter;stroke:#000000;stroke-opacity:1;stroke-miterlimit:4;" d="M 1.498776 1.498533 L 40.39982 1.498533 " transform="matrix(0,-0.75,0.75,0,186.372194,168.502988)"/><path style="fill:none;stroke-width:3;stroke-linecap:butt;stroke-linejoin:miter;stroke:#000000;stroke-opacity:1;stroke-miterlimit:4;" d="M 1.501651 0.00194274 L 1.501651 6.115224 C 1.501651 7.733758 2.143757 9.288612 3.289998 10.434852 C 4.436238 11.581092 5.991092 12.228506 7.614932 12.228506 L 9.594319 12.228506 C 11.21816 12.228506 12.773013 12.870613 13.919254 14.016853 C 15.065494 15.163093 15.707601 16.717947 15.707601 18.341787 L 15.707601 24.455069 " transform="matrix(0.736102,0,0,0.736102,172.023538,147.760289)"/><path style="fill:none;stroke-width:3;stroke-linecap:butt;stroke-linejoin:miter;stroke:#000000;stroke-opacity:1;stroke-miterlimit:4;" d="M 16.800637 0.00193819 L 16.800637 6.407962 C 16.800637 8.107412 16.122975 9.738036 14.921184 10.939828 C 13.719392 12.141619 12.088768 12.813987 10.389318 12.813987 L 7.615139 12.813987 C 5.989809 12.813987 4.438598 13.459883 3.289749 14.608732 C 2.146195 15.752287 1.500298 17.308792 1.500298 18.928828 L 1.500298 25.04367 " transform="matrix(0.737831,0,0,0.737831,189.189909,147.760289)"/><g clip-rule="nonzero" clip-path="url(#6e7784995c)"><g clip-rule="nonzero" clip-path="url(#f43d7722ad)"><path style=" stroke:none;fill-rule:nonzero;fill:#000000;fill-opacity:1;" d="M 197.441406 141.84375 L 204.980469 141.84375 L 204.980469 149.386719 L 197.441406 149.386719 Z M 197.441406 141.84375 "/></g></g><path style="fill:none;stroke-width:3;stroke-linecap:butt;stroke-linejoin:miter;stroke:#000000;stroke-opacity:1;stroke-miterlimit:4;" d="M 9.978543 0.00190267 L 9.978543 10.927625 C 9.978543 12.051693 9.53326 13.126888 8.740439 13.925139 C 7.942188 14.71796 6.861563 15.163243 5.737495 15.163243 C 4.613427 15.163243 3.538232 15.613956 2.739981 16.406777 C 1.94716 17.205028 1.501877 18.280223 1.501877 19.404291 L 1.501877 30.330013 " transform="matrix(0.719346,0,0,0.719346,176.029006,171.002538)"/><path style="fill:none;stroke-width:3;stroke-linecap:butt;stroke-linejoin:miter;stroke:#000000;stroke-opacity:1;stroke-miterlimit:4;" d="M 1.497314 0.00190267 L 1.497314 10.927625 C 1.497314 12.051693 1.948028 13.126888 2.740848 13.925139 C 3.539099 14.71796 4.614295 15.163243 5.738363 15.163243 C 6.86243 15.163243 7.943056 15.613956 8.735877 16.406777 C 9.534128 17.205028 9.979411 18.280223 9.979411 19.404291 L 9.979411 30.330013 " transform="matrix(0.719346,0,0,0.719346,189.086975,171.002538)"/><g clip-rule="nonzero" clip-path="url(#aa7fdf61be)"><g clip-rule="nonzero" clip-path="url(#1a4af4398f)"><path style=" stroke:none;fill-rule:nonzero;fill:#000000;fill-opacity:1;" d="M 179.515625 124.292969 L 195.484375 124.292969 L 195.484375 140.261719 L 179.515625 140.261719 Z M 179.515625 124.292969 "/></g></g><g clip-rule="nonzero" clip-path="url(#c0ede245e5)"><g clip-rule="nonzero" clip-path="url(#fe354c2836)"><path style=" stroke:none;fill-rule:nonzero;fill:#ffffff;fill-opacity:1;" d="M 178.667969 166.101562 L 196.324219 166.101562 L 196.324219 171.933594 L 178.667969 171.933594 Z M 178.667969 166.101562 "/></g></g><g clip-rule="nonzero" clip-path="url(#dd89a3bede)"><g clip-rule="nonzero" clip-path="url(#903ebd5c24)"><path style="fill:none;stroke-width:6;stroke-linecap:butt;stroke-linejoin:miter;stroke:#000000;stroke-opacity:1;stroke-miterlimit:4;" d="M 3.883258 0.00143974 L 19.638467 0.00143974 C 21.7843 0.00143974 23.518676 1.735815 23.518676 3.881648 C 23.518676 6.027482 21.7843 7.767065 19.638467 7.767065 L 3.883258 7.767065 C 1.737424 7.767065 -0.00215936 6.027482 -0.00215936 3.881648 C -0.00215936 1.735815 1.737424 0.00143974 3.883258 0.00143974 Z M 3.883258 0.00143974 " transform="matrix(0.75,0,0,0.75,178.677401,166.100483)"/></g></g></g></svg>